<mxfile host="app.diagrams.net" modified="2022-02-11T03:02:12.670Z" agent="5.0 (Macintosh)" etag="WgWRR3qY-Q5yR0c5q21A" version="16.5.6" type="github">
  <diagram id="ozhW0xsOcwMtaGNw3UVh" name="Page-1">
    <mxGraphModel dx="1426" dy="1920" grid="1" gridSize="10" guides="1" tooltips="1" connect="1" arrows="1" fold="1" page="1" pageScale="1" pageWidth="850" pageHeight="1100" math="0" shadow="0">
      <root>
        <mxCell id="0" />
        <mxCell id="1" parent="0" />
        <mxCell id="Judf0HjQyvIFsXb4fNMF-9" value="Amazon RDS" style="sketch=0;outlineConnect=0;fontColor=#232F3E;gradientColor=none;strokeColor=#ffffff;fillColor=#232F3E;dashed=0;verticalLabelPosition=middle;verticalAlign=bottom;align=center;html=1;whiteSpace=wrap;fontSize=10;fontStyle=1;spacing=3;shape=mxgraph.aws4.productIcon;prIcon=mxgraph.aws4.rds;" vertex="1" parent="1">
          <mxGeometry x="257" y="383" width="80" height="100" as="geometry" />
        </mxCell>
        <mxCell id="Judf0HjQyvIFsXb4fNMF-10" value="Amazon EC2" style="sketch=0;outlineConnect=0;fontColor=#232F3E;gradientColor=none;strokeColor=#ffffff;fillColor=#232F3E;dashed=0;verticalLabelPosition=middle;verticalAlign=bottom;align=center;html=1;whiteSpace=wrap;fontSize=10;fontStyle=1;spacing=3;shape=mxgraph.aws4.productIcon;prIcon=mxgraph.aws4.ec2;" vertex="1" parent="1">
          <mxGeometry x="470" y="266" width="70" height="90" as="geometry" />
        </mxCell>
        <mxCell id="Judf0HjQyvIFsXb4fNMF-11" value="Amazon RDS" style="sketch=0;outlineConnect=0;fontColor=#232F3E;gradientColor=none;strokeColor=#ffffff;fillColor=#232F3E;dashed=0;verticalLabelPosition=middle;verticalAlign=bottom;align=center;html=1;whiteSpace=wrap;fontSize=10;fontStyle=1;spacing=3;shape=mxgraph.aws4.productIcon;prIcon=mxgraph.aws4.rds;" vertex="1" parent="1">
          <mxGeometry x="470" y="383" width="80" height="100" as="geometry" />
        </mxCell>
        <mxCell id="Judf0HjQyvIFsXb4fNMF-17" value="Public subnet" style="points=[[0,0],[0.25,0],[0.5,0],[0.75,0],[1,0],[1,0.25],[1,0.5],[1,0.75],[1,1],[0.75,1],[0.5,1],[0.25,1],[0,1],[0,0.75],[0,0.5],[0,0.25]];outlineConnect=0;gradientColor=none;html=1;whiteSpace=wrap;fontSize=12;fontStyle=0;container=1;pointerEvents=0;collapsible=0;recursiveResize=0;shape=mxgraph.aws4.group;grIcon=mxgraph.aws4.group_security_group;grStroke=0;strokeColor=#248814;fillColor=none;verticalAlign=top;align=left;spacingLeft=30;fontColor=#248814;dashed=0;" vertex="1" parent="1">
          <mxGeometry x="441" y="244" width="307" height="296" as="geometry" />
        </mxCell>
        <mxCell id="Judf0HjQyvIFsXb4fNMF-51" value="&lt;div&gt;SEC 2-AUTHENTICATION&lt;/div&gt;&lt;div&gt;MFA Token&lt;/div&gt;" style="sketch=0;outlineConnect=0;fontColor=#232F3E;gradientColor=none;fillColor=#BF0816;strokeColor=none;dashed=0;verticalLabelPosition=bottom;verticalAlign=top;align=center;html=1;fontSize=12;fontStyle=0;aspect=fixed;pointerEvents=1;shape=mxgraph.aws4.mfa_token;" vertex="1" parent="Judf0HjQyvIFsXb4fNMF-17">
          <mxGeometry x="229" y="48" width="78" height="78" as="geometry" />
        </mxCell>
        <mxCell id="Judf0HjQyvIFsXb4fNMF-18" value="Private subnet" style="points=[[0,0],[0.25,0],[0.5,0],[0.75,0],[1,0],[1,0.25],[1,0.5],[1,0.75],[1,1],[0.75,1],[0.5,1],[0.25,1],[0,1],[0,0.75],[0,0.5],[0,0.25]];outlineConnect=0;gradientColor=none;html=1;whiteSpace=wrap;fontSize=12;fontStyle=0;container=1;pointerEvents=0;collapsible=0;recursiveResize=0;shape=mxgraph.aws4.group;grIcon=mxgraph.aws4.group_security_group;grStroke=0;strokeColor=#147EBA;fillColor=none;verticalAlign=top;align=left;spacingLeft=30;fontColor=#147EBA;dashed=0;" vertex="1" parent="1">
          <mxGeometry x="240" y="358" width="122" height="116" as="geometry" />
        </mxCell>
        <mxCell id="Judf0HjQyvIFsXb4fNMF-22" value="Private subnet" style="points=[[0,0],[0.25,0],[0.5,0],[0.75,0],[1,0],[1,0.25],[1,0.5],[1,0.75],[1,1],[0.75,1],[0.5,1],[0.25,1],[0,1],[0,0.75],[0,0.5],[0,0.25]];outlineConnect=0;gradientColor=none;html=1;whiteSpace=wrap;fontSize=12;fontStyle=0;container=1;pointerEvents=0;collapsible=0;recursiveResize=0;shape=mxgraph.aws4.group;grIcon=mxgraph.aws4.group_security_group;grStroke=0;strokeColor=#147EBA;fillColor=none;verticalAlign=top;align=left;spacingLeft=30;fontColor=#147EBA;dashed=0;perimeterSpacing=2;" vertex="1" parent="1">
          <mxGeometry x="445" y="363" width="130" height="130" as="geometry" />
        </mxCell>
        <mxCell id="Judf0HjQyvIFsXb4fNMF-16" value="Public subnet" style="points=[[0,0],[0.25,0],[0.5,0],[0.75,0],[1,0],[1,0.25],[1,0.5],[1,0.75],[1,1],[0.75,1],[0.5,1],[0.25,1],[0,1],[0,0.75],[0,0.5],[0,0.25]];outlineConnect=0;gradientColor=none;html=1;whiteSpace=wrap;fontSize=12;fontStyle=0;container=1;pointerEvents=0;collapsible=0;recursiveResize=0;shape=mxgraph.aws4.group;grIcon=mxgraph.aws4.group_security_group;grStroke=0;strokeColor=#248814;fillColor=none;verticalAlign=top;align=left;spacingLeft=30;fontColor=#248814;dashed=0;" vertex="1" parent="1">
          <mxGeometry x="250" y="241" width="159" height="320" as="geometry" />
        </mxCell>
        <mxCell id="Judf0HjQyvIFsXb4fNMF-3" value="Amazon EC2" style="sketch=0;outlineConnect=0;fontColor=#232F3E;gradientColor=none;strokeColor=#ffffff;fillColor=#232F3E;dashed=0;verticalLabelPosition=middle;verticalAlign=bottom;align=center;html=1;whiteSpace=wrap;fontSize=10;fontStyle=1;spacing=3;shape=mxgraph.aws4.productIcon;prIcon=mxgraph.aws4.ec2;direction=south;" vertex="1" parent="Judf0HjQyvIFsXb4fNMF-16">
          <mxGeometry x="2" y="33" width="90" height="67" as="geometry" />
        </mxCell>
        <mxCell id="Judf0HjQyvIFsXb4fNMF-27" value="" style="verticalLabelPosition=bottom;verticalAlign=top;html=1;shape=mxgraph.basic.patternFillRect;fillStyle=diag;step=5;fillStrokeWidth=0.2;fillStrokeColor=#dddddd;strokeWidth=1;fillColor=none;gradientColor=none;" vertex="1" parent="Judf0HjQyvIFsXb4fNMF-16">
          <mxGeometry x="-40" y="-71" width="170" height="391" as="geometry" />
        </mxCell>
        <mxCell id="Judf0HjQyvIFsXb4fNMF-43" value="" style="verticalLabelPosition=bottom;verticalAlign=top;html=1;shape=mxgraph.basic.rect;fillColor2=none;strokeWidth=1;size=20;indent=5;fillColor=none;gradientColor=none;" vertex="1" parent="Judf0HjQyvIFsXb4fNMF-16">
          <mxGeometry x="-20" y="120" width="140" height="120" as="geometry" />
        </mxCell>
        <mxCell id="Judf0HjQyvIFsXb4fNMF-67" value="SEC 6- Protect compute resources using managed services like RDS" style="whiteSpace=wrap;html=1;strokeColor=default;strokeWidth=1;fillColor=none;gradientColor=none;" vertex="1" parent="Judf0HjQyvIFsXb4fNMF-16">
          <mxGeometry x="-10" y="249" width="120" height="60" as="geometry" />
        </mxCell>
        <mxCell id="Judf0HjQyvIFsXb4fNMF-37" style="edgeStyle=orthogonalEdgeStyle;rounded=0;orthogonalLoop=1;jettySize=auto;html=1;exitX=0.145;exitY=0.855;exitDx=0;exitDy=0;exitPerimeter=0;" edge="1" parent="1" source="Judf0HjQyvIFsXb4fNMF-26" target="Judf0HjQyvIFsXb4fNMF-8">
          <mxGeometry relative="1" as="geometry" />
        </mxCell>
        <mxCell id="Judf0HjQyvIFsXb4fNMF-38" style="edgeStyle=orthogonalEdgeStyle;rounded=0;orthogonalLoop=1;jettySize=auto;html=1;exitX=0.855;exitY=0.855;exitDx=0;exitDy=0;exitPerimeter=0;" edge="1" parent="1" source="Judf0HjQyvIFsXb4fNMF-26" target="Judf0HjQyvIFsXb4fNMF-33">
          <mxGeometry relative="1" as="geometry" />
        </mxCell>
        <mxCell id="Judf0HjQyvIFsXb4fNMF-26" value="Internet Gateway" style="outlineConnect=0;dashed=0;verticalLabelPosition=bottom;verticalAlign=top;align=center;html=1;shape=mxgraph.aws3.internet_gateway;fillColor=#F58534;gradientColor=none;strokeWidth=1;" vertex="1" parent="1">
          <mxGeometry x="362" y="6" width="69" height="72" as="geometry" />
        </mxCell>
        <mxCell id="Judf0HjQyvIFsXb4fNMF-31" value="Availability Zone 1" style="text;html=1;align=center;verticalAlign=middle;resizable=0;points=[];autosize=1;strokeColor=none;fillColor=none;" vertex="1" parent="1">
          <mxGeometry x="252" y="564" width="110" height="20" as="geometry" />
        </mxCell>
        <mxCell id="Judf0HjQyvIFsXb4fNMF-33" value="VPC NAT Gateway" style="outlineConnect=0;dashed=0;verticalLabelPosition=bottom;verticalAlign=top;align=center;html=1;shape=mxgraph.aws3.vpc_nat_gateway;fillColor=#F58534;gradientColor=none;strokeWidth=1;direction=south;" vertex="1" parent="1">
          <mxGeometry x="490" y="120" width="72" height="60" as="geometry" />
        </mxCell>
        <mxCell id="Judf0HjQyvIFsXb4fNMF-8" value="VPC NAT Gateway" style="outlineConnect=0;dashed=0;verticalLabelPosition=bottom;verticalAlign=top;align=center;html=1;shape=mxgraph.aws3.vpc_nat_gateway;fillColor=#F58534;gradientColor=none;strokeWidth=1;direction=south;" vertex="1" parent="1">
          <mxGeometry x="269" y="120" width="72" height="60" as="geometry" />
        </mxCell>
        <mxCell id="Judf0HjQyvIFsXb4fNMF-28" value="" style="verticalLabelPosition=bottom;verticalAlign=top;html=1;shape=mxgraph.basic.patternFillRect;fillStyle=diag;step=5;fillStrokeWidth=0.2;fillStrokeColor=#dddddd;strokeWidth=1;fillColor=none;gradientColor=none;" vertex="1" parent="1">
          <mxGeometry x="431" y="180" width="171" height="380" as="geometry" />
        </mxCell>
        <mxCell id="Judf0HjQyvIFsXb4fNMF-40" value="" style="verticalLabelPosition=bottom;verticalAlign=top;html=1;shape=mxgraph.basic.rect;fillColor2=none;strokeWidth=1;size=20;indent=5;fillColor=none;gradientColor=none;" vertex="1" parent="1">
          <mxGeometry x="440" y="240" width="140" height="120" as="geometry" />
        </mxCell>
        <mxCell id="Judf0HjQyvIFsXb4fNMF-39" value="" style="verticalLabelPosition=bottom;verticalAlign=top;html=1;shape=mxgraph.basic.rect;fillColor2=none;strokeWidth=1;size=0;indent=0;fillColor=none;gradientColor=none;" vertex="1" parent="1">
          <mxGeometry x="250" y="239" width="120" height="110" as="geometry" />
        </mxCell>
        <mxCell id="Judf0HjQyvIFsXb4fNMF-48" value="" style="verticalLabelPosition=bottom;verticalAlign=top;html=1;shape=mxgraph.basic.rect;fillColor2=none;strokeWidth=1;size=20;indent=5;fillColor=none;gradientColor=none;" vertex="1" parent="1">
          <mxGeometry x="440" y="370" width="140" height="120" as="geometry" />
        </mxCell>
        <mxCell id="Judf0HjQyvIFsXb4fNMF-32" value="Availability Zone 2" style="text;html=1;align=center;verticalAlign=middle;resizable=0;points=[];autosize=1;strokeColor=none;fillColor=none;" vertex="1" parent="1">
          <mxGeometry x="452" y="560" width="110" height="20" as="geometry" />
        </mxCell>
        <mxCell id="Judf0HjQyvIFsXb4fNMF-50" value="&lt;div&gt;SEC 1- SECURE WORKLOADS&lt;br&gt;&lt;/div&gt;&lt;div&gt;Amazon GuardDuty&lt;/div&gt;" style="sketch=0;points=[[0,0,0],[0.25,0,0],[0.5,0,0],[0.75,0,0],[1,0,0],[0,1,0],[0.25,1,0],[0.5,1,0],[0.75,1,0],[1,1,0],[0,0.25,0],[0,0.5,0],[0,0.75,0],[1,0.25,0],[1,0.5,0],[1,0.75,0]];outlineConnect=0;fontColor=#232F3E;gradientColor=#F54749;gradientDirection=north;fillColor=#C7131F;strokeColor=#ffffff;dashed=0;verticalLabelPosition=bottom;verticalAlign=top;align=center;html=1;fontSize=12;fontStyle=0;aspect=fixed;shape=mxgraph.aws4.resourceIcon;resIcon=mxgraph.aws4.guardduty;" vertex="1" parent="1">
          <mxGeometry x="660" y="166" width="78" height="78" as="geometry" />
        </mxCell>
        <mxCell id="Judf0HjQyvIFsXb4fNMF-53" value="US-EAST-REGION (OHIO)" style="text;html=1;align=center;verticalAlign=middle;resizable=0;points=[];autosize=1;strokeColor=none;fillColor=none;" vertex="1" parent="1">
          <mxGeometry x="100" y="-20" width="160" height="20" as="geometry" />
        </mxCell>
        <mxCell id="Judf0HjQyvIFsXb4fNMF-54" value="&lt;div&gt;SEC 4- DETECTION&lt;/div&gt;&lt;div&gt;AWS CloudTrail&lt;/div&gt;" style="outlineConnect=0;dashed=0;verticalLabelPosition=bottom;verticalAlign=top;align=center;html=1;shape=mxgraph.aws3.cloudtrail;fillColor=#759C3E;gradientColor=none;strokeColor=default;strokeWidth=1;" vertex="1" parent="1">
          <mxGeometry x="670" y="420" width="76.5" height="93" as="geometry" />
        </mxCell>
        <mxCell id="Judf0HjQyvIFsXb4fNMF-55" value="&lt;div&gt;SEC 7-DATA PROTECTION&lt;/div&gt;&lt;div&gt;AWS CloudWatch&lt;/div&gt;" style="outlineConnect=0;dashed=0;verticalLabelPosition=bottom;verticalAlign=top;align=center;html=1;shape=mxgraph.aws3.cloudwatch;fillColor=#759C3E;gradientColor=none;strokeColor=default;strokeWidth=1;" vertex="1" parent="1">
          <mxGeometry x="100" y="151.5" width="82.5" height="93" as="geometry" />
        </mxCell>
        <mxCell id="Judf0HjQyvIFsXb4fNMF-56" value="&lt;div&gt;SEC 3-PERMISSIONS MGMT&lt;/div&gt;&lt;div&gt; -Network Security Groups&lt;/div&gt;" style="aspect=fixed;html=1;points=[];align=center;image;fontSize=12;image=img/lib/azure2/networking/Network_Security_Groups.svg;strokeColor=default;strokeWidth=1;fillColor=none;gradientColor=none;" vertex="1" parent="1">
          <mxGeometry x="110" y="295" width="56.00000000000001" height="68" as="geometry" />
        </mxCell>
        <mxCell id="Judf0HjQyvIFsXb4fNMF-58" value="&lt;div&gt;SEC 8- DATA AT REST-&lt;/div&gt;&lt;div&gt;AWS KMS&lt;/div&gt;" style="outlineConnect=0;dashed=0;verticalLabelPosition=bottom;verticalAlign=top;align=center;html=1;shape=mxgraph.aws3.kms;fillColor=#759C3E;gradientColor=none;strokeColor=default;strokeWidth=1;" vertex="1" parent="1">
          <mxGeometry x="89.5" y="410" width="76.5" height="93" as="geometry" />
        </mxCell>
        <mxCell id="Judf0HjQyvIFsXb4fNMF-59" value="&lt;div&gt;SEC 9- DATA IN TRANSIT&lt;/div&gt;&lt;div&gt;-TLS&lt;/div&gt;" style="verticalLabelPosition=bottom;sketch=0;html=1;fillColor=#A153A0;strokeColor=#ffffff;verticalAlign=top;align=center;points=[[0,0.5,0],[0.125,0.25,0],[0.25,0,0],[0.5,0,0],[0.75,0,0],[0.875,0.25,0],[1,0.5,0],[0.875,0.75,0],[0.75,1,0],[0.5,1,0],[0.125,0.75,0]];pointerEvents=1;shape=mxgraph.cisco_safe.compositeIcon;bgIcon=mxgraph.cisco_safe.design.blank_device;resIcon=mxgraph.cisco_safe.design.encryption_offload;" vertex="1" parent="1">
          <mxGeometry x="89.5" y="550" width="50" height="45" as="geometry" />
        </mxCell>
        <mxCell id="Judf0HjQyvIFsXb4fNMF-66" value="&lt;div&gt;SEC 5- INFRASTRUCTURE PROTECTION&lt;/div&gt;&lt;div&gt;USING SUBNETS AND NACL&lt;br&gt;&lt;/div&gt;" style="text;html=1;align=center;verticalAlign=middle;resizable=0;points=[];autosize=1;strokeColor=none;fillColor=none;" vertex="1" parent="1">
          <mxGeometry x="300" y="605" width="250" height="30" as="geometry" />
        </mxCell>
        <mxCell id="Judf0HjQyvIFsXb4fNMF-68" value="" style="whiteSpace=wrap;html=1;strokeColor=default;strokeWidth=1;fillColor=none;gradientColor=none;" vertex="1" parent="1">
          <mxGeometry x="300" y="592.5" width="250" height="55" as="geometry" />
        </mxCell>
      </root>
    </mxGraphModel>
  </diagram>
</mxfile>
